<?xml version="1.0" encoding="UTF-8" standalone="no"?>
<svg
   xmlns:dc="http://purl.org/dc/elements/1.1/"
   xmlns:cc="http://creativecommons.org/ns#"
   xmlns:rdf="http://www.w3.org/1999/02/22-rdf-syntax-ns#"
   xmlns:svg="http://www.w3.org/2000/svg"
   xmlns="http://www.w3.org/2000/svg"
   xmlns:sodipodi="http://sodipodi.sourceforge.net/DTD/sodipodi-0.dtd"
   xmlns:inkscape="http://www.inkscape.org/namespaces/inkscape"
   width="734.42096"
   viewBox="0 0 734.42096 734.14453"
   height="734.14453"
   version="1.0"
   id="svg835"
   sodipodi:docname="logo-white.svg"
   inkscape:version="0.92.4 (5da689c313, 2019-01-14)">
  <metadata
     id="metadata841">
    <rdf:RDF>
      <cc:Work
         rdf:about="">
        <dc:format>image/svg+xml</dc:format>
        <dc:type
           rdf:resource="http://purl.org/dc/dcmitype/StillImage" />
        <dc:title></dc:title>
      </cc:Work>
    </rdf:RDF>
  </metadata>
  <defs
     id="defs839" />
  <sodipodi:namedview
     pagecolor="#ffffff"
     bordercolor="#666666"
     borderopacity="1"
     objecttolerance="10"
     gridtolerance="10"
     guidetolerance="10"
     inkscape:pageopacity="0"
     inkscape:pageshadow="2"
     inkscape:window-width="2247"
     inkscape:window-height="1316"
     id="namedview837"
     showgrid="false"
     inkscape:zoom="1.2586667"
     inkscape:cx="211.74758"
     inkscape:cy="426.53937"
     inkscape:window-x="1323"
     inkscape:window-y="153"
     inkscape:window-maximized="0"
     inkscape:current-layer="svg835" />
  <path
     d="m 367.35696,0 c -39.80469,0 -74.17578,30.382811 -110.01563,41.683594 -37.16015,11.59375 -83.57422,6.75 -114.5664,28.472656 -31.28907,21.867192 -40.6875,65.75391 -63.457041,95.83984 -22.61718,29.79688 -63.30468,51.8125 -75.4960897,87.6211 -11.60547,34.49218 7.3437497,75.14844 7.3437497,113.45312 0,38.3086 -19.0937497,78.96485 -7.3437497,113.45313 12.0429697,35.8125 52.8789097,57.82812 75.3515597,87.625 22.765631,30.08593 32.167971,73.96875 63.453131,95.83984 30.99219,21.72266 77.26172,16.87891 114.57031,28.47266 35.98438,11.15234 70.20703,41.68359 110.01563,41.68359 39.80468,0 74.17578,-30.38281 110.01562,-41.68359 37.16016,-11.59375 83.57422,-6.75 114.56641,-28.47266 31.28515,-21.87109 40.6875,-65.75391 63.45312,-95.83984 22.6211,-29.79688 63.3086,-51.8125 75.35157,-87.625 11.75,-34.63672 -7.34375,-75.29297 -7.34375,-113.45313 0,-38.30468 19.09375,-78.96094 7.34375,-113.45312 -12.04297,-35.8086 -52.87891,-57.82422 -75.35157,-87.6211 C 632.48196,135.91016 623.07961,92.023442 591.79446,70.15625 560.80227,48.582031 514.53665,53.425781 477.37258,41.683594 441.38821,30.527343 407.16165,0 367.35696,0 Z m 223.11719,118.18555 c 15.39854,0.33749 26.47174,12.7531 30.44531,34.81445 2.9414,16.33203 -0.0391,52.45312 -0.60938,53.88672 -1.75781,4.42578 -4.16796,8.50781 -6.89843,13.05078 -5.38672,-10.4375 5.02343,-73.71094 -34.25391,-68.84375 -22.84766,2.82422 -44.12891,29.17188 -57.37109,47.64453 -21.65963,30.20656 -38.49824,70.13563 -50.58399,112.57813 63.64981,19.96294 53.29719,124.664 -18.25195,141.58203 -1.64401,0.59293 -3.14493,1.04638 -4.57813,1.43554 -1.46988,40.42615 2.11685,74.79867 10.69532,95.05665 7.05078,16.62109 15.60937,20.91406 27.32031,19.80859 15.55078,-1.45313 37.75,-11.20313 51.80859,-18.05078 82.98828,-40.41407 98.94141,-76.15235 105.11328,-72.71875 1.28125,0.70703 1.66016,1.64062 1.14453,3.87109 -1.20311,5.0586 -2.29296,6.08984 -7.0664,15.21094 -1.05078,2.03906 -1.77735,4.32812 -3.11328,6.14062 -3.9375,5.30469 -26.78516,29.46485 -52.76563,48.01172 -39.96875,28.52344 -69.51953,42.72266 -97.50781,52.71875 -45.25972,16.1743 -60.59234,-56.26065 -52.11133,-150.6582 -2.71168,-1.46735 -4.77663,-3.57657 -6.92773,-5.62695 0.96875,-2.94922 -0.66406,-0.95704 7.69922,-3.44922 0.0402,-0.012 0.0789,-0.0271 0.11914,-0.0391 4.05454,-38.82841 11.98798,-80.91064 23.4082,-121.82031 -5.91407,-0.76066 -12.64739,-0.61457 -20.25781,0.62891 -6.96094,14.53515 -27.63281,74.34375 -36.55078,119.59375 -9.20313,46.69531 -12.37891,91.26172 9.33593,131.49219 3.38282,6.26953 -3.8789,12.90234 -9.7539,8.88281 -58.125,-39.75781 -86.33985,-45.94141 -137.27344,-94.35156 -26.52734,-25.21485 -20.65625,-22.44532 -25.77344,-15.54297 -47.64843,64.23828 -51.33593,72.25781 -71.8164,85.6875 -60.06641,39.39843 -119.554691,-29.16797 -93.910161,-94.17188 7.65625,-19.40234 30.859381,-27.23827 36.562501,-15.27344 -6.816411,3.20313 -10.855471,1.6211 -13.519531,8.96094 -11.67188,32.19532 -7.12109,60.39453 12.308591,85.86328 18.4961,24.25 48.33985,4.21094 68.88672,-18.49218 23.91016,-26.41016 50.72656,-64.73438 54.73047,-72.22266 -113.125,-157.03906 39.35547,-328.28516 114.02734,-197.48047 25.5586,-40.70703 32.51563,-58.39844 79.25,-100.60937 37.78907,-34.13672 82.80469,-25.84374 63.57422,32.04296 -47.60547,143.28908 -53.60937,118.5625 -30.375,120.51172 1.57292,0.13183 3.10064,0.3225 4.60742,0.53907 11.79974,-39.22269 26.793,-76.87361 44.63868,-108.92579 31.26843,-56.15039 61.91679,-81.10209 84.08984,-81.73046 0.50564,-0.0143 1.00718,-0.0168 1.50391,-0.006 z m -119.42188,25.92382 c -51.08984,20.69141 -88.44531,67.03125 -117.12109,114.27735 -8.60157,14.17187 -5.50392,4.95703 -0.69531,35.71484 4.73045,30.3086 -3.46876,52.57031 -0.51954,58.42188 19.04688,-20.64063 41.74219,-33.88672 68.10547,-40.57422 1.82422,-3.85547 57.20703,-128 55.08985,-157.39063 -0.26172,-3.64843 -0.44922,-7.39061 -4.85938,-10.44922 z m -187.71484,74.85157 c -54.54602,0.49722 -116.20508,110.81235 -44.08203,216.74609 4.78125,7.03125 78.08203,-132.28125 96.26171,-165.29297 -3.24609,-7.0664 -6.13671,-14.0625 -9.61718,-20.75 -11.21573,-21.57123 -26.58438,-30.84877 -42.5625,-30.70312 z m 55.25,66.46875 c -31.8711,54.72656 -55.53516,112.21094 -88.14063,165.54687 36.60938,42.29688 80.08985,75.28125 128.36719,102.69531 -14.84766,-88.20702 5.67969,-139.19531 34.69531,-223.50781 -36.625,14.48438 -62.61719,38.73828 -74.94531,75.67188 -5.92188,1.71875 -10.09766,0.48047 -13.5625,-4.67969 4.45312,-14.74609 4.85938,-12.94141 5.55078,-16.56641 11.23047,-59.24218 14.95313,-68.82812 8.03516,-99.16015 z m 128.74609,40.20117 c -9.62761,37.48225 -15.63526,76.26332 -18.05273,111.55664 43.1293,-26.38639 57.29076,-95.60422 18.05273,-111.55664 z"
     id="path829"
     inkscape:connector-curvature="0"
     style="fill:#ffffff" />
</svg>
